<?xml version="1.0" encoding="UTF-8" standalone="no"?>
<!DOCTYPE svg PUBLIC "-//W3C//DTD SVG 1.1//EN"
 "http://www.w3.org/Graphics/SVG/1.1/DTD/svg11.dtd">
<!-- Generated by graphviz version 2.40.1 (0)
 -->
<!-- Title: snakemake_dag Pages: 1 -->
<svg width="366pt" height="260pt"
 viewBox="0.00 0.00 365.50 260.00" xmlns="http://www.w3.org/2000/svg" xmlns:xlink="http://www.w3.org/1999/xlink">
<g id="graph0" class="graph" transform="scale(1 1) rotate(0) translate(4 256)">
<title>snakemake_dag</title>
<polygon fill="#ffffff" stroke="transparent" points="-4,4 -4,-256 361.5,-256 361.5,4 -4,4"/>
<!-- 0 -->
<g id="node1" class="node">
<title>0</title>
<path fill="none" stroke="#d8a456" stroke-width="2" d="M243,-36C243,-36 171,-36 171,-36 165,-36 159,-30 159,-24 159,-24 159,-12 159,-12 159,-6 165,0 171,0 171,0 243,0 243,0 249,0 255,-6 255,-12 255,-12 255,-24 255,-24 255,-30 249,-36 243,-36"/>
<text text-anchor="middle" x="207" y="-15.5" font-family="sans" font-size="10.00" fill="#000000">make_summary</text>
</g>
<!-- 1 -->
<g id="node2" class="node">
<title>1</title>
<path fill="none" stroke="#78d856" stroke-width="2" d="M56,-108C56,-108 12,-108 12,-108 6,-108 0,-102 0,-96 0,-96 0,-84 0,-84 0,-78 6,-72 12,-72 12,-72 56,-72 56,-72 62,-72 68,-78 68,-84 68,-84 68,-96 68,-96 68,-102 62,-108 56,-108"/>
<text text-anchor="middle" x="34" y="-87.5" font-family="sans" font-size="10.00" fill="#000000">make_dag</text>
</g>
<!-- 1&#45;&gt;0 -->
<g id="edge1" class="edge">
<title>1&#45;&gt;0</title>
<path fill="none" stroke="#c0c0c0" stroke-width="2" d="M68.1792,-75.7751C92.7741,-65.5391 126.4085,-51.541 154.4101,-39.8871"/>
<polygon fill="#c0c0c0" stroke="#c0c0c0" stroke-width="2" points="155.7817,-43.1074 163.6692,-36.0336 153.092,-36.6447 155.7817,-43.1074"/>
</g>
<!-- 2 -->
<g id="node3" class="node">
<title>2</title>
<path fill="none" stroke="#d85656" stroke-width="2" d="M167.5,-180C167.5,-180 24.5,-180 24.5,-180 18.5,-180 12.5,-174 12.5,-168 12.5,-168 12.5,-156 12.5,-156 12.5,-150 18.5,-144 24.5,-144 24.5,-144 167.5,-144 167.5,-144 173.5,-144 179.5,-150 179.5,-156 179.5,-156 179.5,-168 179.5,-168 179.5,-174 173.5,-180 167.5,-180"/>
<text text-anchor="middle" x="96" y="-159.5" font-family="sans" font-size="10.00" fill="#000000">get_SARSr_wts_mut_bind_expr</text>
</g>
<!-- 2&#45;&gt;0 -->
<g id="edge2" class="edge">
<title>2&#45;&gt;0</title>
<path fill="none" stroke="#c0c0c0" stroke-width="2" d="M95.6686,-143.7186C96.2032,-124.2121 99.6968,-93.2537 115,-72 124.1435,-59.3011 137.2732,-49.1024 150.7617,-41.1368"/>
<polygon fill="#c0c0c0" stroke="#c0c0c0" stroke-width="2" points="152.5863,-44.1272 159.6391,-36.2209 149.1952,-38.0034 152.5863,-44.1272"/>
</g>
<!-- 5 -->
<g id="node6" class="node">
<title>5</title>
<path fill="none" stroke="#56a2d8" stroke-width="2" d="M277.5,-108C277.5,-108 136.5,-108 136.5,-108 130.5,-108 124.5,-102 124.5,-96 124.5,-96 124.5,-84 124.5,-84 124.5,-78 130.5,-72 136.5,-72 136.5,-72 277.5,-72 277.5,-72 283.5,-72 289.5,-78 289.5,-84 289.5,-84 289.5,-96 289.5,-96 289.5,-102 283.5,-108 277.5,-108"/>
<text text-anchor="middle" x="207" y="-87.5" font-family="sans" font-size="10.00" fill="#000000">collapse_bcs_lib47_SARSr_wts</text>
</g>
<!-- 2&#45;&gt;5 -->
<g id="edge8" class="edge">
<title>2&#45;&gt;5</title>
<path fill="none" stroke="#c0c0c0" stroke-width="2" d="M124.01,-143.8314C138.0761,-134.7074 155.294,-123.539 170.3933,-113.7449"/>
<polygon fill="#c0c0c0" stroke="#c0c0c0" stroke-width="2" points="172.514,-116.5412 178.999,-108.1628 168.7047,-110.6684 172.514,-116.5412"/>
</g>
<!-- 3 -->
<g id="node4" class="node">
<title>3</title>
<path fill="none" stroke="#56d87b" stroke-width="2" d="M345.5,-252C345.5,-252 280.5,-252 280.5,-252 274.5,-252 268.5,-246 268.5,-240 268.5,-240 268.5,-228 268.5,-228 268.5,-222 274.5,-216 280.5,-216 280.5,-216 345.5,-216 345.5,-216 351.5,-216 357.5,-222 357.5,-228 357.5,-228 357.5,-240 357.5,-240 357.5,-246 351.5,-252 345.5,-252"/>
<text text-anchor="middle" x="313" y="-231.5" font-family="sans" font-size="10.00" fill="#000000">count_variants</text>
</g>
<!-- 3&#45;&gt;0 -->
<g id="edge3" class="edge">
<title>3&#45;&gt;0</title>
<path fill="none" stroke="#c0c0c0" stroke-width="2" d="M325.1817,-215.882C331.2315,-205.7891 337.8978,-192.7221 341,-180 352.6962,-132.0341 347.808,-108.894 315,-72 301.4767,-56.7925 282.6793,-45.3534 264.5524,-37.0116"/>
<polygon fill="#c0c0c0" stroke="#c0c0c0" stroke-width="2" points="265.7319,-33.7079 255.1657,-32.9281 262.9394,-40.1268 265.7319,-33.7079"/>
</g>
<!-- 4 -->
<g id="node5" class="node">
<title>4</title>
<path fill="none" stroke="#c6d856" stroke-width="2" d="M320.5,-180C320.5,-180 209.5,-180 209.5,-180 203.5,-180 197.5,-174 197.5,-168 197.5,-168 197.5,-156 197.5,-156 197.5,-150 203.5,-144 209.5,-144 209.5,-144 320.5,-144 320.5,-144 326.5,-144 332.5,-150 332.5,-156 332.5,-156 332.5,-168 332.5,-168 332.5,-174 326.5,-180 320.5,-180"/>
<text text-anchor="middle" x="265" y="-159.5" font-family="sans" font-size="10.00" fill="#000000">calculate_bc_mAb_EC50</text>
</g>
<!-- 3&#45;&gt;4 -->
<g id="edge6" class="edge">
<title>3&#45;&gt;4</title>
<path fill="none" stroke="#c0c0c0" stroke-width="2" d="M300.8876,-215.8314C295.4719,-207.7079 288.9758,-197.9637 283.0079,-189.0118"/>
<polygon fill="#c0c0c0" stroke="#c0c0c0" stroke-width="2" points="285.7347,-186.7923 277.2755,-180.4133 279.9104,-190.6753 285.7347,-186.7923"/>
</g>
<!-- 4&#45;&gt;0 -->
<g id="edge4" class="edge">
<title>4&#45;&gt;0</title>
<path fill="none" stroke="#c0c0c0" stroke-width="2" d="M280.4763,-143.9844C294.5819,-125.246 311.3404,-95.4286 298,-72 290.245,-58.3805 277.5526,-47.8414 264.0748,-39.8421"/>
<polygon fill="#c0c0c0" stroke="#c0c0c0" stroke-width="2" points="265.5993,-36.6864 255.1485,-34.9454 262.2325,-42.8236 265.5993,-36.6864"/>
</g>
<!-- 4&#45;&gt;5 -->
<g id="edge7" class="edge">
<title>4&#45;&gt;5</title>
<path fill="none" stroke="#c0c0c0" stroke-width="2" d="M250.3642,-143.8314C243.6839,-135.5386 235.6432,-125.557 228.3096,-116.4533"/>
<polygon fill="#c0c0c0" stroke="#c0c0c0" stroke-width="2" points="230.8319,-114.0052 221.8329,-108.4133 225.3806,-118.3965 230.8319,-114.0052"/>
</g>
<!-- 5&#45;&gt;0 -->
<g id="edge5" class="edge">
<title>5&#45;&gt;0</title>
<path fill="none" stroke="#c0c0c0" stroke-width="2" d="M207,-71.8314C207,-64.131 207,-54.9743 207,-46.4166"/>
<polygon fill="#c0c0c0" stroke="#c0c0c0" stroke-width="2" points="210.5001,-46.4132 207,-36.4133 203.5001,-46.4133 210.5001,-46.4132"/>
</g>
</g>
</svg>
